<svg width="512" height="192" viewBox="0 0 512 192" fill="none" xmlns="http://www.w3.org/2000/svg">
<rect width="512" height="192" fill="white"/>
<path d="M99.3775 90.9458L105.033 93.121C107.946 94.1446 110.774 95.3815 113.516 96.8317C116.258 98.1966 118.657 99.86 120.714 101.822C122.856 103.699 124.57 105.959 125.855 108.604C127.141 111.163 127.783 114.148 127.783 117.561C127.783 121.74 126.841 125.366 124.956 128.437C123.156 131.508 120.757 134.067 117.758 136.114C114.844 138.076 111.545 139.526 107.861 140.465C104.176 141.488 100.491 142 96.8069 142C92.6081 142 88.5379 141.531 84.5962 140.592C80.6546 139.654 77.1413 138.417 74.0565 136.882C72.6855 136.114 72 134.834 72 133.043L72.3856 121.143C72.557 119.011 73.6709 117.944 75.7275 117.944H78.5552C80.4403 117.944 81.5971 118.925 82.0256 120.887L83.6965 130.1C83.8679 131.294 84.4249 132.275 85.3674 133.043C86.3957 133.726 87.5525 134.28 88.8378 134.707C90.2088 135.048 91.5799 135.261 92.9509 135.346C94.4076 135.432 95.6072 135.474 96.5498 135.474C102.12 135.474 106.49 134.28 109.66 131.892C112.831 129.418 114.416 125.92 114.416 121.399C114.416 119.352 113.987 117.603 113.131 116.153C112.359 114.703 111.288 113.466 109.917 112.442C108.632 111.333 107.132 110.438 105.419 109.755C103.791 108.987 102.12 108.305 100.406 107.708L95.0074 105.789C88.0666 103.059 82.5826 99.6894 78.5552 95.6801C74.6135 91.6708 72.6427 86.5953 72.6427 80.4534C72.6427 76.4441 73.4567 72.9893 75.0848 70.089C76.7986 67.1034 78.9836 64.6296 81.64 62.6676C84.382 60.7056 87.4668 59.2555 90.8944 58.3171C94.4076 57.3788 97.9637 56.9096 101.563 56.9096C105.419 56.9096 108.975 57.3788 112.231 58.3171C115.487 59.2555 118.486 60.4924 121.228 62.0278C122.771 62.8809 123.456 64.2031 123.285 65.9944L122.642 76.8707C122.556 78.9179 121.485 79.9416 119.429 79.9416H116.601C114.716 79.9416 113.559 78.9606 113.131 76.9986L111.46 68.0417C111.203 66.3357 110.303 65.2267 108.76 64.7149C106.447 63.8618 103.962 63.4353 101.306 63.4353C99.249 63.4353 97.2782 63.7339 95.393 64.331C93.5079 64.8428 91.8369 65.6532 90.3802 66.7622C88.9235 67.7858 87.7667 69.1507 86.9098 70.8568C86.0529 72.4775 85.6245 74.4395 85.6245 76.7427C85.6245 80.4961 86.7813 83.3964 89.0949 85.4437C91.4085 87.4057 94.836 89.2397 99.3775 90.9458Z" fill="black"/>
<path d="M177.777 126.389C178.719 125.11 179.619 124.47 180.476 124.47C180.733 124.47 181.033 124.555 181.376 124.726C182.661 125.494 182.918 126.773 182.147 128.565C180.176 132.915 177.177 136.242 173.149 138.545C169.208 140.848 164.538 142 159.139 142C154.512 142 150.399 141.232 146.8 139.697C143.201 138.076 140.159 135.901 137.674 133.171C135.275 130.356 133.433 127.072 132.147 123.319C130.948 119.48 130.348 115.343 130.348 110.907C130.348 106.556 131.076 102.462 132.533 98.6231C133.99 94.7844 136.046 91.4576 138.703 88.6426C141.359 85.7422 144.529 83.4817 148.214 81.8609C151.899 80.2402 156.012 79.4298 160.553 79.4298C163.124 79.4298 165.652 79.771 168.137 80.4534C170.707 81.1358 173.021 82.2021 175.077 83.6523C177.22 85.0171 179.019 86.7659 180.476 88.8985C181.933 90.9458 182.789 93.3343 183.047 96.064C182.447 99.5614 180.262 101.31 176.491 101.31C172.121 101.31 169.593 98.6657 168.908 93.3769L168.008 88.5146C167.665 86.9791 166.937 86.0408 165.823 85.6996C164.795 85.3584 163.638 85.1878 162.353 85.1878C159.182 85.1878 156.483 85.9555 154.255 87.491C152.027 88.9411 150.228 90.8604 148.857 93.249C147.486 95.5522 146.457 98.1539 145.772 101.054C145.172 103.869 144.872 106.599 144.872 109.243C144.872 117.262 146.629 123.276 150.142 127.285C153.655 131.294 158.154 133.299 163.638 133.299C169.465 133.299 174.178 130.996 177.777 126.389Z" fill="black"/>
<path d="M241.724 131.38C241.895 131.209 242.452 131.55 243.395 132.403C244.423 133.427 244.38 134.707 243.266 136.242C241.895 138.204 240.396 139.526 238.768 140.209C237.14 140.976 235.212 141.36 232.984 141.36C229.47 141.36 226.685 140.635 224.629 139.185C222.658 137.65 221.287 135.645 220.516 133.171C217.774 135.901 215.118 138.076 212.547 139.697C209.976 141.232 206.677 142 202.65 142C197.937 142 193.952 140.72 190.696 138.161C187.526 135.602 185.941 131.849 185.941 126.901C185.941 123.574 186.84 120.717 188.64 118.328C190.525 115.94 192.838 113.892 195.58 112.186C198.408 110.48 201.407 109.073 204.578 107.964C207.748 106.855 210.705 105.917 213.447 105.149L220.002 103.229V99.9026C220.002 94.2726 219.145 90.4339 217.431 88.3866C215.803 86.2541 212.975 85.1878 208.948 85.1878C208.519 85.1878 208.091 85.1878 207.663 85.1878C207.32 85.1878 206.934 85.2304 206.506 85.3157C204.792 85.401 203.721 86.4247 203.292 88.3866L202.136 93.6328C201.107 98.751 198.537 101.31 194.424 101.31C192.71 101.31 191.253 100.798 190.054 99.7747C188.854 98.6657 188.168 97.2582 187.997 95.5522C188.768 90.7752 191.339 86.8938 195.709 83.9082C200.165 80.9226 205.992 79.4298 213.19 79.4298C220.302 79.4298 225.486 81.1358 228.742 84.548C231.998 87.9601 233.626 93.974 233.626 102.59V128.309C233.626 132.147 234.826 134.067 237.225 134.067C238.253 134.067 239.196 133.768 240.053 133.171C240.653 132.745 241.038 132.403 241.21 132.147C241.381 131.806 241.552 131.55 241.724 131.38ZM220.002 128.181V108.348C217.945 108.86 215.717 109.499 213.318 110.267C211.004 111.035 208.819 112.016 206.763 113.21C204.706 114.404 202.993 115.897 201.622 117.688C200.251 119.395 199.565 121.484 199.565 123.958C199.565 126.859 200.422 129.119 202.136 130.74C203.935 132.361 206.292 133.171 209.205 133.171C210.919 133.171 212.504 132.83 213.961 132.147C215.503 131.465 217.517 130.143 220.002 128.181Z" fill="black"/>
<path d="M264.6 130.74C264.6 132.702 265.542 133.854 267.427 134.195L270.127 134.707C272.012 135.048 272.954 136.029 272.954 137.65C272.954 139.27 271.883 140.081 269.741 140.081H245.191C243.049 140.081 241.978 139.27 241.978 137.65C241.978 136.114 242.963 135.133 244.934 134.707L247.762 134.195C249.647 133.854 250.59 132.702 250.59 130.74C250.675 128.01 250.718 125.28 250.718 122.551C250.804 119.821 250.847 117.091 250.847 114.362V65.4826C250.847 63.5206 249.861 62.4117 247.89 62.1558L244.034 61.6439C242.064 61.388 241.078 60.4923 241.078 58.9569C241.078 57.4214 242.021 56.3978 243.906 55.8859L260.872 51.5355C261.301 51.3649 261.643 51.2796 261.901 51.2796C262.243 51.2796 262.586 51.2796 262.929 51.2796C263.529 51.2796 263.914 51.3649 264.086 51.5355C264.6 51.8767 264.857 52.9003 264.857 54.6064L264.471 69.4492V114.362C264.471 117.091 264.471 119.821 264.471 122.551C264.557 125.28 264.6 128.01 264.6 130.74Z" fill="black"/>
<path d="M296.092 130.868C296.178 132.659 297.163 133.768 299.049 134.195L301.234 134.579C303.119 135.005 304.061 136.029 304.061 137.65C304.061 139.27 302.99 140.081 300.848 140.081H277.198C275.056 140.081 273.985 139.27 273.985 137.65C273.985 136.114 274.97 135.133 276.941 134.707L279.512 134.195C281.397 133.768 282.382 132.659 282.468 130.868V108.22C282.468 106.514 282.468 104.978 282.468 103.613C282.468 102.248 282.425 100.969 282.339 99.7747C282.254 99.0923 282.211 98.4098 282.211 97.7274C282.211 97.045 282.211 96.3625 282.211 95.6801C282.039 93.7181 281.011 92.6092 279.126 92.3533L276.041 91.9694C274.07 91.7135 273.085 90.8178 273.085 89.2823C273.085 87.9175 273.942 86.8938 275.656 86.2114L292.365 80.1975C292.793 80.0269 293.179 79.8989 293.522 79.8136C293.864 79.7283 294.207 79.6857 294.55 79.6857C294.978 79.6857 295.321 79.8136 295.578 80.0695C296.178 80.5814 296.478 81.605 296.478 83.1405L296.092 97.7274V130.868ZM289.152 67.6579C286.41 67.6579 284.139 66.8475 282.339 65.2267C280.626 63.6059 279.769 61.4733 279.769 58.8289C279.769 56.1845 280.626 54.0519 282.339 52.4311C284.139 50.8104 286.41 50 289.152 50C291.808 50 293.993 50.8104 295.707 52.4311C297.506 54.0519 298.406 56.1845 298.406 58.8289C298.406 61.4733 297.506 63.6059 295.707 65.2267C293.993 66.8475 291.808 67.6579 289.152 67.6579Z" fill="black"/>
<path d="M365.242 130.868C365.328 132.659 366.313 133.768 368.198 134.195L370.383 134.579C372.269 135.005 373.211 136.029 373.211 137.65C373.211 139.27 372.14 140.081 369.998 140.081H346.348C344.206 140.081 343.134 139.27 343.134 137.65C343.134 136.029 344.077 135.048 345.962 134.707L348.533 134.195C350.418 133.768 351.403 132.659 351.489 130.868V102.974C351.489 97.8554 350.846 94.23 349.561 92.0974C348.361 89.8795 346.134 88.7705 342.877 88.7705C340.221 88.7705 337.65 89.4103 335.165 90.6899C332.766 91.9694 330.195 93.8887 327.453 96.4479V130.868C327.539 132.659 328.525 133.768 330.41 134.195L332.723 134.707C334.608 135.048 335.551 136.029 335.551 137.65C335.551 139.27 334.48 140.081 332.338 140.081H308.43C306.288 140.081 305.217 139.27 305.217 137.65C305.217 136.114 306.203 135.133 308.173 134.707L310.873 134.195C312.758 133.768 313.743 132.659 313.829 130.868V107.708C313.829 106.002 313.829 104.466 313.829 103.102C313.829 101.737 313.786 100.542 313.7 99.5188C313.615 98.8364 313.572 98.1966 313.572 97.5995C313.572 97.0023 313.572 96.3625 313.572 95.6801C313.4 93.7181 312.372 92.6092 310.487 92.3533L307.402 91.9694C305.431 91.7135 304.446 90.8178 304.446 89.2823C304.446 87.8322 305.303 86.7659 307.017 86.0835L321.926 80.3255C322.698 79.9842 323.469 79.8136 324.24 79.8136C324.754 79.8136 325.097 79.8989 325.268 80.0695C325.954 80.4961 326.339 81.4771 326.425 83.0125L327.068 90.5619C330.324 86.8085 333.623 84.0362 336.965 82.2448C340.307 80.3681 344.077 79.4298 348.276 79.4298C353.931 79.4298 358.173 81.1785 361.001 84.6759C363.828 88.0881 365.242 93.7181 365.242 101.566V130.868Z" fill="black"/>
<path d="M430.388 130.74C430.388 132.617 431.374 133.768 433.345 134.195L436.044 134.707C438.015 135.133 439 136.114 439 137.65C439 139.185 437.972 140.038 435.915 140.209L421.262 141.104C419.206 141.104 418.049 140.166 417.792 138.289L417.278 133.683C414.793 136.413 412.179 138.503 409.437 139.953C406.695 141.318 403.396 142 399.54 142C395.256 142 391.528 141.104 388.358 139.313C385.273 137.522 382.703 135.176 380.646 132.275C378.675 129.375 377.176 126.091 376.147 122.423C375.205 118.755 374.733 115.001 374.733 111.163C374.733 107.239 375.29 103.4 376.404 99.6467C377.518 95.8081 379.146 92.3959 381.289 89.4103C383.517 86.4247 386.259 84.0362 389.515 82.2448C392.857 80.3681 396.713 79.4298 401.083 79.4298C407.509 79.4298 412.951 81.9036 417.406 86.8512V65.6106C417.406 63.5633 416.421 62.4117 414.45 62.1558L410.08 61.6439C408.109 61.388 407.124 60.4923 407.124 58.9569C407.124 57.4214 408.066 56.3978 409.952 55.8859L426.918 51.5355C427.346 51.3649 427.689 51.2796 427.946 51.2796C428.289 51.2796 428.632 51.2796 428.974 51.2796C429.574 51.2796 429.96 51.3649 430.131 51.5355C430.56 51.8767 430.774 52.9003 430.774 54.6064L430.388 69.4492V130.74ZM416.764 128.437V92.7371C412.308 89.325 408.323 87.6189 404.81 87.6189C401.811 87.6189 399.283 88.3866 397.227 89.9221C395.256 91.3723 393.671 93.249 392.471 95.5522C391.357 97.8554 390.543 100.372 390.029 103.102C389.6 105.831 389.386 108.39 389.386 110.779C389.386 118.627 390.8 124.427 393.628 128.181C396.456 131.849 400.054 133.683 404.425 133.683C408.452 133.683 412.565 131.934 416.764 128.437Z" fill="black"/>
</svg>
